<?xml version="1.0" encoding="UTF-8"?>
<svg version="1.1" viewBox="0 0 645.52 649.79" xml:space="preserve" xmlns="http://www.w3.org/2000/svg" xmlns:cc="http://creativecommons.org/ns#" xmlns:dc="http://purl.org/dc/elements/1.1/" xmlns:rdf="http://www.w3.org/1999/02/22-rdf-syntax-ns#"><metadata><rdf:RDF><cc:Work rdf:about=""><dc:format>image/svg+xml</dc:format><dc:type rdf:resource="http://purl.org/dc/dcmitype/StillImage"/><dc:title/></cc:Work></rdf:RDF></metadata><defs><clipPath id="a"><path d="m0 800h800v-800h-800z"/></clipPath><clipPath><path d="m691.5 758.06z"/></clipPath></defs><g transform="matrix(1.3333 0 0 -1.3333 -127.88 904.7)"><g transform="translate(-58.854 -109.3)"><g clip-path="url(#a)"><g transform="translate(510.72 539.26)"><path d="m0 0c-10.68-10.663-27.978-10.663-38.643 0l-82.073 82.081c-10.686 10.679-10.686 27.968 0 38.633l82.073 82.087c10.665 10.656 27.963 10.656 38.643 0l82.07-82.087c10.68-10.665 10.68-27.954 0-38.633zm110.82 142.5-89.063 89.036c-22.677 22.706-59.474 22.706-82.158 0l-89.079-89.036c-22.661-22.697-22.661-59.503 0-82.201l89.079-89.035c22.684-22.699 59.481-22.699 82.158 0l89.063 89.035c22.707 22.706 22.707 59.504 0 82.201" fill="#441750"/></g><g transform="translate(321.24 349.8)"><path d="m0 0c-10.679-10.677-27.962-10.677-38.641 0l-82.069 82.066c-10.659 10.672-10.659 27.97 0 38.625l82.069 82.089c10.679 10.686 27.962 10.686 38.656 0l82.072-82.072c10.664-10.672 10.664-27.97 0-38.642zm110.82 142.48-89.026 89.05c-22.698 22.698-59.496 22.698-82.209 0l-89.02-89.05c-22.713-22.699-22.713-59.489 0-82.203l89.02-89.034c22.713-22.697 59.511-22.697 82.209 0l89.026 89.049c22.715 22.699 22.715 59.489 0 82.188" fill="#441750"/></g><g transform="translate(390.34 428.32)"><path d="m0 0c-10.657 10.679-10.657 27.969 0 38.647l82.095 82.073c10.649 10.671 27.962 10.665 38.625 0l82.073-82.095c10.665-10.656 10.665-27.946 0-38.625l-82.073-82.067c-10.663-10.677-27.976-10.677-38.625 0zm142.5-110.81 89.04 89.032c22.708 22.7 22.708 59.505 0 82.196l-89.04 89.042c-22.7 22.699-59.505 22.699-82.196 0l-89.042-89.042c-22.699-22.691-22.699-59.496 0-82.196l89.058-89.032c22.675-22.7 59.48-22.7 82.18 0" fill="#5aa02c"/></g><g transform="translate(398.59 525.74)"><path d="m0 0-25.251-25.265 25.251-25.258 25.259 25.258z" fill="#5aa02c"/></g><g transform="translate(467.35 543.99)"><path d="m0 0-25.252 25.25-25.257-25.25 25.257-25.271z" fill="#5aa02c"/></g><g transform="translate(515.77 544.31)"><path d="M 0,0 25.271,-25.25 50.523,0 25.271,25.28 Z" fill="#441750"/></g><g transform="translate(200.86 617.81)"><path d="m0 0c-10.664 10.68-10.664 27.97 0 38.625l82.084 82.096c10.663 10.657 27.961 10.657 38.625 0l82.088-82.096c10.663-10.655 10.663-27.945 0-38.625l-82.088-82.072c-10.664-10.678-27.962-10.678-38.625-8e-3zm142.48-110.83 89.057 89.05c22.7 22.699 22.7 59.504-0.014 82.194l-89.043 89.043c-22.697 22.706-59.481 22.706-82.193 0l-89.04-89.043c-22.678-22.69-22.678-59.495 0-82.194l89.04-89.027c22.712-22.722 59.496-22.722 82.193-0.023" fill="#5aa02c"/></g><g transform="translate(329.82 543.99)"><path d="M 0,0 25.272,-25.271 50.523,0 25.272,25.25 Z" fill="#5aa02c"/></g><g transform="translate(395.05 715.56)"><path d="m0 0-25.25-25.265 25.25-25.258 25.273 25.258z"/></g><g transform="translate(423.85 587.49)"><path d="m0 0-25.259 25.257-25.251-25.257 25.251-25.273z" fill="#5aa02c"/></g><g transform="translate(420.62 690.29)"><path d="m0 0-25.554 25.563-25.57-25.563 25.57-25.547z" fill="#441750"/></g><g transform="translate(369.51 398.42)"><path d="M 0,0 25.49,-25.468 50.958,0 25.49,25.5 Z" fill="#441750"/></g><g transform="translate(223.26 544.2)"><path d="M 0,0 25.709,-25.687 51.396,0 25.709,25.716 Z" fill="#441750"/></g></g></g></g></svg>
