<?xml version="1.0" encoding="UTF-8" standalone="no"?>
<svg
   xmlnsDc="http://purl.org/dc/elements/1.1/"
   xmlnsDc="http://creativecommons.org/ns#"
   xmlnsRdf="http://www.w3.org/1999/02/22-rdf-syntax-ns#"
   xmlnsSvg="http://www.w3.org/2000/svg"
   xmlns="http://www.w3.org/2000/svg"
   viewBox="0 0 645.52445 649.78513"
   height="649.78516"
   width="645.52448"
   xmlSpace="preserve"
   id="svg3732"
   version="1.1"><metadata
     id="metadata3738"><rdfRDF><ccWork
         rdfAbout=""><dcFormat>image/svg+xml</dcFormat><dcType
           rdfResource="http://purl.org/dc/dcmitype/StillImage" /><dcTitle></dcTitle></ccWork></rdfRDF></metadata><defs
     id="defs3736"><clipPath
       id="clipPath3748"
       clipPathUnits="userSpaceOnUse"><path
         id="path3746"
         d="M 0,800 H 800 V 0 H 0 Z" /></clipPath><clipPath
       id="clipPath3756"
       clipPathUnits="userSpaceOnUse"><path
         id="path3754"
         d="m 691.496,758.062 v 0 z" /></clipPath></defs><g
     transform="matrix(1.3333333,0,0,-1.3333333,-127.87948,904.69743)"
     id="g3740"><g
       transform="translate(-58.854439,-109.30111)"
       id="g3742"><g
         clip-path="url(#clipPath3748)"
         id="g3744"><g
           id="g3750"><g
             id="g3752" /><g
             id="g3760"><g
               style="opacity:0.39999402"
               id="g3758"
               clip-path="url(#clipPath3756)" /></g></g><g
           transform="translate(510.7246,539.2617)"
           id="g3762"><path
             id="path3764"
             style="fill:#441750;fill-opacity:1;fill-rule:nonzero;stroke:none"
             d="m 0,0 c -10.68,-10.663 -27.978,-10.663 -38.643,0 l -82.073,82.081 c -10.686,10.679 -10.686,27.968 0,38.633 l 82.073,82.087 c 10.665,10.656 27.963,10.656 38.643,0 l 82.07,-82.087 c 10.68,-10.665 10.68,-27.954 0,-38.633 z m 110.816,142.497 -89.063,89.036 c -22.677,22.706 -59.474,22.706 -82.158,0 l -89.079,-89.036 c -22.661,-22.697 -22.661,-59.503 0,-82.201 l 89.079,-89.035 c 22.684,-22.699 59.481,-22.699 82.158,0 l 89.063,89.035 c 22.707,22.706 22.707,59.504 0,82.201" /></g><g
           transform="translate(321.2358,349.7969)"
           id="g3766"><path
             id="path3768"
             style="fill:#441750;fill-opacity:1;fill-rule:nonzero;stroke:none"
             d="m 0,0 c -10.679,-10.677 -27.962,-10.677 -38.641,0 l -82.069,82.066 c -10.659,10.672 -10.659,27.97 0,38.625 l 82.069,82.089 c 10.679,10.686 27.962,10.686 38.656,0 l 82.072,-82.072 c 10.664,-10.672 10.664,-27.97 0,-38.642 z m 110.818,142.476 -89.026,89.05 c -22.698,22.698 -59.496,22.698 -82.209,0 l -89.02,-89.05 c -22.713,-22.699 -22.713,-59.489 0,-82.203 l 89.02,-89.034 c 22.713,-22.697 59.511,-22.697 82.209,0 l 89.026,89.049 c 22.715,22.699 22.715,59.489 0,82.188" /></g><g
           transform="translate(390.3374,428.3213)"
           id="g3770"><path
             id="path3772"
             style="fill:#5aa02c;fill-opacity:1;fill-rule:nonzero;stroke:none"
             d="m 0,0 c -10.657,10.679 -10.657,27.969 0,38.647 l 82.095,82.073 c 10.649,10.671 27.962,10.665 38.625,0 L 202.793,38.625 C 213.458,27.969 213.458,10.679 202.793,0 L 120.72,-82.067 c -10.663,-10.677 -27.976,-10.677 -38.625,0 z m 142.499,-110.811 89.04,89.032 c 22.708,22.7 22.708,59.505 0,82.196 l -89.04,89.042 c -22.7,22.699 -59.505,22.699 -82.196,0 L -28.739,60.417 c -22.699,-22.691 -22.699,-59.496 0,-82.196 l 89.058,-89.032 c 22.675,-22.7 59.48,-22.7 82.18,0" /></g><g
           transform="translate(398.5937,525.7412)"
           id="g3774"><path
             id="path3776"
             style="fill:#5aa02c;fill-opacity:1;fill-rule:nonzero;stroke:none"
             d="M 0,0 -25.251,-25.265 0,-50.523 25.259,-25.265 Z" /></g><g
           transform="translate(467.3535,543.9907)"
           id="g3778"><path
             id="path3780"
             style="fill:#5aa02c;fill-opacity:1;fill-rule:nonzero;stroke:none"
             d="M 0,0 -25.252,25.25 -50.509,0 -25.252,-25.271 Z" /></g><g
           transform="translate(515.7656,544.3125)"
           id="g3782"><path
             id="path3784"
             style="fill:#441750;fill-opacity:1;fill-rule:nonzero;stroke:none"
             d="M 0,0 25.271,-25.25 50.523,0 25.271,25.28 Z" /></g><g
           transform="translate(200.8618,617.8071)"
           id="g3786"><path
             id="path3788"
             style="fill:#5aa02c;fill-opacity:1;fill-rule:nonzero;stroke:none"
             d="m 0,0 c -10.664,10.68 -10.664,27.97 0,38.625 l 82.084,82.096 c 10.663,10.657 27.961,10.657 38.625,0 L 202.797,38.625 C 213.46,27.97 213.46,10.68 202.797,0 L 120.709,-82.072 C 110.045,-92.75 92.747,-92.75 82.084,-82.08 Z m 142.485,-110.834 89.057,89.05 c 22.7,22.699 22.7,59.504 -0.014,82.194 l -89.043,89.043 c -22.697,22.706 -59.481,22.706 -82.193,0 L -28.748,60.41 c -22.678,-22.69 -22.678,-59.495 0,-82.194 l 89.04,-89.027 c 22.712,-22.722 59.496,-22.722 82.193,-0.023" /></g><g
           transform="translate(329.8208,543.9907)"
           id="g3790"><path
             id="path3792"
             style="fill:#5aa02c;fill-opacity:1;fill-rule:nonzero;stroke:none"
             d="M 0,0 25.272,-25.271 50.523,0 25.272,25.25 Z" /></g><g
           transform="translate(395.0522,715.5557)"
           id="g3794"><path
             id="path3796"
             style="fill:#000000;fill-opacity:1;fill-rule:nonzero;stroke:none"
             d="M 0,0 -25.25,-25.265 0,-50.523 25.273,-25.265 Z" /></g><g
           transform="translate(423.8525,587.4927)"
           id="g3798"><path
             id="path3800"
             style="fill:#5aa02c;fill-opacity:1;fill-rule:nonzero;stroke:none"
             d="M 0,0 -25.259,25.257 -50.51,0 -25.259,-25.273 Z" /></g><g
           transform="translate(420.6211,690.2905)"
           id="g3802"><path
             id="path3804"
             style="fill:#441750;fill-opacity:1;fill-rule:nonzero;stroke:none"
             d="M 0,0 -25.554,25.563 -51.124,0 l 25.57,-25.547 z" /></g><g
           transform="translate(369.5059,398.416)"
           id="g3806"><path
             id="path3808"
             style="fill:#441750;fill-opacity:1;fill-rule:nonzero;stroke:none"
             d="M 0,0 25.49,-25.468 50.958,0 25.49,25.5 Z" /></g><g
           transform="translate(223.2573,544.2026)"
           id="g3810"><path
             id="path3812"
             style="fill:#441750;fill-opacity:1;fill-rule:nonzero;stroke:none"
             d="M 0,0 25.709,-25.687 51.396,0 25.709,25.716 Z" /></g></g></g></g></svg>